<svg width="24" height="24" viewBox="0 0 24 24" fill="none" xmlns="http://www.w3.org/2000/svg">
<path id="Path" d="M22.675 0.322144H1.325C0.593 0.322144 0 0.906591 0 1.62803V22.6711C0 23.3915 0.593 23.976 1.325 23.976H12.82V14.816H9.692V11.2463H12.82V8.6138C12.82 5.55851 14.713 3.89486 17.479 3.89486C18.804 3.89486 19.942 3.99243 20.274 4.0358V7.22907L18.356 7.23005C16.852 7.23005 16.561 7.93474 16.561 8.96762V11.2473H20.148L19.681 14.817H16.561V23.976H22.677C23.407 23.976 24 23.3915 24 22.6701V1.62803C24 0.906591 23.407 0.322144 22.675 0.322144Z" fill="#FEFCF7"/>
</svg>
