<svg width="24" height="24" viewBox="0 0 24 24" fill="none" xmlns="http://www.w3.org/2000/svg">
<path id="Shape" fill-rule="evenodd" clip-rule="evenodd" d="M12 0.322144C8.741 0.322144 8.333 0.335942 7.053 0.393105C2.695 0.59022 0.273 2.97335 0.073 7.27243C0.014 8.53496 0 8.93707 0 12.1491C0 15.3611 0.014 15.7642 0.072 17.0257C0.272 21.3208 2.69 23.7079 7.052 23.905C8.333 23.9622 8.741 23.976 12 23.976C15.259 23.976 15.668 23.9622 16.948 23.905C21.302 23.7079 23.73 21.3248 23.927 17.0257C23.986 15.7642 24 15.3611 24 12.1491C24 8.93707 23.986 8.53496 23.928 7.27342C23.732 2.98222 21.311 0.591206 16.949 0.394091C15.668 0.335942 15.259 0.322144 12 0.322144ZM12 2.45388C15.204 2.45388 15.584 2.46571 16.85 2.52287C20.102 2.66874 21.621 4.18948 21.769 7.37093C21.827 8.61768 21.838 8.9922 21.838 12.15C21.838 15.3088 21.826 15.6823 21.769 16.9291C21.62 20.1075 20.105 21.6312 16.85 21.7771C15.584 21.8343 15.206 21.8461 12 21.8461C8.79599 21.8461 8.41599 21.8343 7.15099 21.7771C3.89099 21.6303 2.37999 20.1026 2.23199 16.9281C2.17399 15.6813 2.16199 15.3078 2.16199 12.149C2.16199 8.99121 2.17499 8.61768 2.23199 7.36994C2.38099 4.18948 3.89599 2.66775 7.15099 2.52189C8.41699 2.46571 8.79599 2.45388 12 2.45388ZM5.83801 12.1491C5.83801 8.79513 8.59701 6.07593 12 6.07593C15.403 6.07593 18.162 8.79513 18.162 12.1491C18.162 15.504 15.403 18.2232 12 18.2232C8.59701 18.2232 5.83801 15.503 5.83801 12.1491ZM12 16.0913C9.791 16.0913 8 14.3272 8 12.149C8 9.9719 9.791 8.20673 12 8.20673C14.209 8.20673 16 9.9719 16 12.149C16 14.3272 14.209 16.0913 12 16.0913ZM16.965 5.83645C16.965 5.05291 17.61 4.41722 18.406 4.41722C19.201 4.41722 19.845 5.05291 19.845 5.83645C19.845 6.61998 19.201 7.25568 18.406 7.25568C17.61 7.25568 16.965 6.61998 16.965 5.83645Z" fill="#FEFCF7"/>
</svg>
