<svg width="24" height="20" viewBox="0 0 24 20" fill="none" xmlns="http://www.w3.org/2000/svg">
<path id="Path" d="M24 2.81342C23.117 3.19976 22.168 3.45996 21.172 3.57724C22.189 2.97702 22.97 2.02594 23.337 0.892527C22.386 1.44839 21.332 1.85248 20.21 2.07029C19.313 1.12709 18.032 0.53772 16.616 0.53772C13.437 0.53772 11.101 3.46094 11.819 6.49553C7.728 6.29349 4.1 4.36176 1.671 1.42572C0.381 3.60681 1.002 6.46005 3.194 7.90491C2.388 7.87928 1.628 7.66147 0.965 7.29779C0.911 9.54589 2.546 11.6491 4.914 12.1173C4.221 12.3026 3.462 12.3459 2.69 12.2001C3.316 14.1278 5.134 15.5303 7.29 15.5697C5.22 17.1693 2.612 17.8839 0 17.5803C2.179 18.9572 4.768 19.7604 7.548 19.7604C16.69 19.7604 21.855 12.1508 21.543 5.32565C22.505 4.64068 23.34 3.78618 24 2.81342Z" fill="#FEFCF7"/>
</svg>
